<?xml version="1.0" encoding="UTF-8"?>
<svg xmlns="http://www.w3.org/2000/svg" xmlns:xlink="http://www.w3.org/1999/xlink" width="69.714035pt" height="26.998545pt" viewBox="0 0 69.714035 26.998545" version="1.1">
<g id="surface1">
<path style="fill-rule:nonzero;fill:rgb(25%,25%,25%);stroke-opacity:1;stroke-miterlimit:4;" d="M 14.164062 13.829728 C 14.164062 17.6233 11.089844 20.700574 7.292969 20.700574 C 3.496094 20.700574 0.417969 17.6233 0.417969 13.829728 C 0.417969 10.032155 3.496094 6.954881 7.292969 6.954881 C 11.089844 6.954881 14.164062 10.032155 14.164062 13.829728 Z M 14.164062 13.829728 " transform="matrix(1,0,0,0.976158,0,0)"/>
<path style="fill-rule:nonzero;fill:rgb(25%,25%,25%);stroke-opacity:1;stroke-miterlimit:4;" d="M 13.859375 6.954881 L 7.226562 6.954881 L 7.328125 20.700574 L 13.929688 20.700574 L 13.859375 6.954881 " transform="matrix(1,0,0,0.976158,0,0)"/>
<path style="fill:none;stroke-width:0.838342;stroke-linecap:round;stroke-linejoin:round;stroke:rgb(57%,57%,57%);stroke-opacity:1;stroke-miterlimit:4;" d="M 12.222656 13.829728 C 12.222656 16.550855 10.015625 18.75977 7.292969 18.75977 C 4.570312 18.75977 2.363281 16.550855 2.363281 13.829728 C 2.363281 11.1046 4.570312 8.899686 7.292969 8.899686 C 10.015625 8.899686 12.222656 11.1046 12.222656 13.829728 Z M 12.222656 13.829728 " transform="matrix(1,0,0,0.976158,0,0)"/>
<path style="fill-rule:nonzero;fill:rgb(25%,25%,25%);stroke-opacity:1;stroke-miterlimit:4;" d="M -55.550781 13.829728 C -55.550781 17.6233 -58.625 20.700574 -62.421875 20.700574 C -66.21875 20.700574 -69.292969 17.6233 -69.292969 13.829728 C -69.292969 10.032155 -66.21875 6.954881 -62.421875 6.954881 C -58.625 6.954881 -55.550781 10.032155 -55.550781 13.829728 Z M -55.550781 13.829728 " transform="matrix(-1,0,0,0.976158,0,0)"/>
<path style="fill-rule:nonzero;fill:rgb(25%,25%,25%);stroke-opacity:1;stroke-miterlimit:4;" d="M -55.855469 6.954881 L -62.488281 6.954881 L -62.386719 20.700574 L -55.785156 20.700574 L -55.855469 6.954881 " transform="matrix(-1,0,0,0.976158,0,0)"/>
<path style="fill:none;stroke-width:0.838342;stroke-linecap:round;stroke-linejoin:round;stroke:rgb(57%,57%,57%);stroke-opacity:1;stroke-miterlimit:4;" d="M -57.492188 13.829728 C -57.492188 16.550855 -59.699219 18.75977 -62.421875 18.75977 C -65.144531 18.75977 -67.351562 16.550855 -67.351562 13.829728 C -67.351562 11.1046 -65.144531 8.899686 -62.421875 8.899686 C -59.699219 8.899686 -57.492188 11.1046 -57.492188 13.829728 Z M -57.492188 13.829728 " transform="matrix(-1,0,0,0.976158,0,0)"/>
<path style="fill-rule:nonzero;fill:rgb(30%,30%,30%);stroke-opacity:1;stroke-miterlimit:4;" d="M 13.894531 0.412171 L 55.820312 0.412171 L 55.820312 27.247286 L 13.894531 27.247286 Z M 13.894531 0.412171 " transform="matrix(1,0,0,0.976158,0,0)"/>
<path style="fill-rule:nonzero;fill:rgb(58%,58%,58%);stroke-opacity:1;stroke-miterlimit:4;" d="M 19.9375 23.733831 C 19.9375 25.134411 18.804688 26.26688 17.402344 26.26688 C 16.003906 26.26688 14.867188 25.134411 14.867188 23.733831 C 14.867188 22.333251 16.003906 21.19678 17.402344 21.19678 C 18.804688 21.19678 19.9375 22.333251 19.9375 23.733831 Z M 19.9375 23.733831 " transform="matrix(1,0,0,0.976158,0,0)"/>
<path style="fill-rule:nonzero;fill:rgb(58%,58%,58%);stroke-opacity:1;stroke-miterlimit:4;" d="M 26.921875 23.733831 C 26.921875 25.134411 25.785156 26.26688 24.382812 26.26688 C 22.984375 26.26688 21.847656 25.134411 21.847656 23.733831 C 21.847656 22.333251 22.984375 21.19678 24.382812 21.19678 C 25.785156 21.19678 26.921875 22.333251 26.921875 23.733831 Z M 26.921875 23.733831 " transform="matrix(1,0,0,0.976158,0,0)"/>
<path style="fill-rule:nonzero;fill:rgb(58%,58%,58%);stroke-opacity:1;stroke-miterlimit:4;" d="M 33.902344 23.733831 C 33.902344 25.134411 32.765625 26.26688 31.367188 26.26688 C 29.964844 26.26688 28.832031 25.134411 28.832031 23.733831 C 28.832031 22.333251 29.964844 21.19678 31.367188 21.19678 C 32.765625 21.19678 33.902344 22.333251 33.902344 23.733831 Z M 33.902344 23.733831 " transform="matrix(1,0,0,0.976158,0,0)"/>
<path style="fill-rule:nonzero;fill:rgb(58%,58%,58%);stroke-opacity:1;stroke-miterlimit:4;" d="M 40.882812 23.733831 C 40.882812 25.134411 39.75 26.26688 38.347656 26.26688 C 36.949219 26.26688 35.8125 25.134411 35.8125 23.733831 C 35.8125 22.333251 36.949219 21.19678 38.347656 21.19678 C 39.75 21.19678 40.882812 22.333251 40.882812 23.733831 Z M 40.882812 23.733831 " transform="matrix(1,0,0,0.976158,0,0)"/>
<path style="fill-rule:nonzero;fill:rgb(58%,58%,58%);stroke-opacity:1;stroke-miterlimit:4;" d="M 47.863281 23.733831 C 47.863281 25.134411 46.730469 26.26688 45.328125 26.26688 C 43.929688 26.26688 42.792969 25.134411 42.792969 23.733831 C 42.792969 22.333251 43.929688 21.19678 45.328125 21.19678 C 46.730469 21.19678 47.863281 22.333251 47.863281 23.733831 Z M 47.863281 23.733831 " transform="matrix(1,0,0,0.976158,0,0)"/>
<path style="fill-rule:nonzero;fill:rgb(58%,58%,58%);stroke-opacity:1;stroke-miterlimit:4;" d="M 54.847656 23.733831 C 54.847656 25.134411 53.710938 26.26688 52.3125 26.26688 C 50.910156 26.26688 49.777344 25.134411 49.777344 23.733831 C 49.777344 22.333251 50.910156 21.19678 52.3125 21.19678 C 53.710938 21.19678 54.847656 22.333251 54.847656 23.733831 Z M 54.847656 23.733831 " transform="matrix(1,0,0,0.976158,0,0)"/>
<path style="fill-rule:nonzero;fill:rgb(57%,57%,57%);stroke-opacity:1;stroke-miterlimit:4;" d="M 53.234375 2.929213 C 53.234375 3.629503 52.667969 4.197739 51.96875 4.197739 C 51.265625 4.197739 50.699219 3.629503 50.699219 2.929213 C 50.699219 2.228923 51.265625 1.660688 51.96875 1.660688 C 52.667969 1.660688 53.234375 2.228923 53.234375 2.929213 Z M 53.234375 2.929213 " transform="matrix(1,0,0,0.976158,0,0)"/>
<path style=" stroke:none;fill-rule:nonzero;fill:rgb(100%,100%,100%);fill-opacity:1;" d="M 16.070312 17.996094 L 16.78125 17.996094 L 18.789062 18.765625 C 18.886719 18.804688 18.933594 18.863281 18.933594 18.949219 C 18.933594 19.039062 18.886719 19.101562 18.789062 19.136719 L 16.78125 19.902344 L 16.070312 19.902344 C 16.011719 19.902344 15.964844 19.886719 15.929688 19.851562 C 15.890625 19.8125 15.871094 19.765625 15.871094 19.714844 C 15.871094 19.664062 15.890625 19.617188 15.929688 19.582031 C 15.964844 19.542969 16.011719 19.527344 16.070312 19.527344 L 16.699219 19.527344 L 18.203125 18.949219 L 16.703125 18.371094 L 16.070312 18.371094 C 16.011719 18.371094 15.964844 18.355469 15.929688 18.320312 C 15.890625 18.28125 15.871094 18.234375 15.871094 18.183594 C 15.871094 18.132812 15.890625 18.085938 15.929688 18.050781 C 15.964844 18.011719 16.011719 17.996094 16.070312 17.996094 Z M 16.070312 17.996094 "/>
<path style=" stroke:none;fill-rule:nonzero;fill:rgb(100%,100%,100%);fill-opacity:1;" d="M 15.871094 16.9375 L 15.871094 15.40625 C 15.871094 15.359375 15.890625 15.316406 15.929688 15.277344 C 15.964844 15.238281 16.011719 15.21875 16.0625 15.21875 C 16.117188 15.21875 16.164062 15.238281 16.203125 15.273438 C 16.242188 15.3125 16.261719 15.355469 16.261719 15.40625 L 16.261719 15.980469 L 18.546875 15.980469 L 18.546875 15.40625 C 18.546875 15.355469 18.566406 15.3125 18.605469 15.273438 C 18.640625 15.238281 18.6875 15.21875 18.742188 15.21875 C 18.796875 15.21875 18.839844 15.238281 18.878906 15.273438 C 18.917969 15.3125 18.933594 15.355469 18.933594 15.40625 L 18.933594 16.9375 C 18.933594 16.992188 18.917969 17.035156 18.878906 17.074219 C 18.839844 17.109375 18.796875 17.128906 18.742188 17.128906 C 18.6875 17.128906 18.640625 17.109375 18.605469 17.074219 C 18.566406 17.035156 18.546875 16.992188 18.546875 16.9375 L 18.546875 16.359375 L 16.261719 16.359375 L 16.261719 16.9375 C 16.261719 16.992188 16.242188 17.035156 16.203125 17.074219 C 16.167969 17.109375 16.121094 17.128906 16.070312 17.128906 C 16.011719 17.128906 15.964844 17.109375 15.929688 17.074219 C 15.890625 17.035156 15.871094 16.992188 15.871094 16.9375 Z M 15.871094 16.9375 "/>
<path style=" stroke:none;fill-rule:nonzero;fill:rgb(100%,100%,100%);fill-opacity:1;" d="M 16.070312 12.433594 L 18.933594 12.433594 L 18.933594 12.941406 L 16.554688 13.960938 L 18.742188 13.960938 C 18.796875 13.960938 18.839844 13.980469 18.878906 14.015625 C 18.917969 14.050781 18.933594 14.097656 18.933594 14.148438 C 18.933594 14.203125 18.917969 14.246094 18.878906 14.285156 C 18.839844 14.320312 18.796875 14.339844 18.742188 14.339844 L 15.871094 14.339844 L 15.871094 13.835938 L 18.246094 12.816406 L 16.070312 12.816406 C 16.015625 12.816406 15.96875 12.796875 15.929688 12.761719 C 15.890625 12.722656 15.871094 12.675781 15.871094 12.621094 C 15.871094 12.570312 15.890625 12.527344 15.929688 12.488281 C 15.964844 12.453125 16.011719 12.433594 16.070312 12.433594 Z M 16.070312 12.433594 "/>
<path style=" stroke:none;fill-rule:nonzero;fill:rgb(100%,100%,100%);fill-opacity:1;" d="M 22.851562 18.796875 L 22.851562 18.171875 C 22.851562 18.117188 22.871094 18.074219 22.910156 18.039062 C 22.945312 18 22.992188 17.980469 23.046875 17.980469 C 23.101562 17.980469 23.148438 18 23.1875 18.042969 C 23.226562 18.082031 23.242188 18.125 23.242188 18.171875 L 23.242188 18.769531 C 23.242188 18.828125 23.273438 18.878906 23.328125 18.921875 L 24.027344 19.453125 C 24.082031 19.5 24.160156 19.519531 24.257812 19.519531 L 25.332031 19.519531 C 25.386719 19.519531 25.433594 19.503906 25.472656 19.46875 C 25.511719 19.429688 25.53125 19.382812 25.53125 19.332031 L 25.53125 18.5625 C 25.53125 18.511719 25.511719 18.464844 25.472656 18.429688 C 25.433594 18.390625 25.386719 18.371094 25.335938 18.371094 L 24.917969 18.371094 L 24.917969 18.765625 C 24.917969 18.820312 24.898438 18.863281 24.859375 18.898438 C 24.824219 18.9375 24.777344 18.953125 24.722656 18.953125 C 24.667969 18.953125 24.625 18.9375 24.585938 18.898438 C 24.546875 18.863281 24.527344 18.820312 24.527344 18.765625 L 24.527344 17.996094 L 25.335938 17.996094 C 25.496094 17.996094 25.632812 18.050781 25.746094 18.160156 C 25.859375 18.273438 25.917969 18.40625 25.917969 18.5625 L 25.917969 19.332031 C 25.917969 19.488281 25.859375 19.625 25.746094 19.738281 C 25.632812 19.847656 25.496094 19.902344 25.335938 19.902344 L 24.261719 19.902344 C 24.070312 19.902344 23.910156 19.855469 23.777344 19.753906 L 23.050781 19.195312 C 22.996094 19.152344 22.949219 19.097656 22.910156 19.027344 C 22.871094 18.953125 22.851562 18.875 22.851562 18.796875 Z M 22.851562 18.796875 "/>
<path style=" stroke:none;fill-rule:nonzero;fill:rgb(100%,100%,100%);fill-opacity:1;" d="M 23.050781 15.203125 L 25.917969 15.203125 L 25.917969 15.714844 L 23.535156 16.730469 L 25.722656 16.730469 C 25.777344 16.730469 25.824219 16.75 25.863281 16.789062 C 25.898438 16.824219 25.917969 16.867188 25.917969 16.921875 C 25.917969 16.972656 25.898438 17.019531 25.863281 17.054688 C 25.824219 17.089844 25.777344 17.109375 25.722656 17.109375 L 22.851562 17.109375 L 22.851562 16.609375 L 25.226562 15.585938 L 23.050781 15.585938 C 22.996094 15.585938 22.949219 15.570312 22.910156 15.53125 C 22.871094 15.492188 22.851562 15.445312 22.851562 15.394531 C 22.851562 15.339844 22.871094 15.296875 22.910156 15.261719 C 22.949219 15.222656 22.996094 15.203125 23.050781 15.203125 Z M 23.050781 15.203125 "/>
<path style=" stroke:none;fill-rule:nonzero;fill:rgb(100%,100%,100%);fill-opacity:1;" d="M 22.851562 14.140625 L 22.851562 13.390625 C 22.851562 13.296875 22.886719 13.199219 22.949219 13.109375 C 23.011719 13.015625 23.085938 12.949219 23.175781 12.902344 L 23.953125 12.53125 C 24.09375 12.460938 24.238281 12.425781 24.390625 12.425781 C 24.53125 12.425781 24.675781 12.460938 24.824219 12.535156 L 25.59375 12.914062 C 25.691406 12.960938 25.769531 13.03125 25.828125 13.121094 C 25.886719 13.210938 25.917969 13.3125 25.917969 13.421875 L 25.917969 14.144531 C 25.917969 14.195312 25.898438 14.242188 25.859375 14.28125 C 25.820312 14.316406 25.777344 14.332031 25.722656 14.332031 C 25.667969 14.332031 25.625 14.316406 25.585938 14.28125 C 25.546875 14.242188 25.523438 14.195312 25.523438 14.144531 L 25.523438 13.945312 L 23.242188 13.945312 L 23.242188 14.140625 C 23.242188 14.191406 23.226562 14.238281 23.1875 14.273438 C 23.144531 14.3125 23.097656 14.328125 23.046875 14.328125 C 22.992188 14.328125 22.949219 14.3125 22.910156 14.273438 C 22.871094 14.238281 22.851562 14.191406 22.851562 14.140625 Z M 23.242188 13.566406 L 25.53125 13.566406 L 25.53125 13.433594 C 25.53125 13.351562 25.488281 13.289062 25.402344 13.246094 L 24.640625 12.871094 C 24.542969 12.824219 24.457031 12.800781 24.390625 12.800781 C 24.304688 12.800781 24.226562 12.820312 24.148438 12.859375 L 23.363281 13.246094 C 23.28125 13.285156 23.242188 13.351562 23.242188 13.445312 Z M 23.242188 13.566406 "/>
<path style=" stroke:none;fill-rule:nonzero;fill:rgb(100%,100%,100%);fill-opacity:1;" d="M 29.832031 19.472656 L 29.832031 18.488281 C 29.832031 18.367188 29.886719 18.253906 29.992188 18.148438 C 30.09375 18.039062 30.21875 17.984375 30.367188 17.984375 C 30.421875 17.984375 30.46875 18.003906 30.507812 18.042969 C 30.546875 18.082031 30.566406 18.125 30.566406 18.171875 C 30.566406 18.234375 30.550781 18.277344 30.519531 18.304688 C 30.488281 18.328125 30.433594 18.351562 30.351562 18.371094 C 30.269531 18.394531 30.230469 18.441406 30.230469 18.515625 L 30.230469 19.453125 C 30.230469 19.496094 30.246094 19.519531 30.273438 19.519531 C 30.292969 19.519531 30.3125 19.507812 30.339844 19.488281 L 32.175781 18.085938 C 32.265625 18.019531 32.363281 17.984375 32.464844 17.984375 C 32.578125 17.984375 32.679688 18.027344 32.765625 18.109375 C 32.855469 18.191406 32.898438 18.28125 32.898438 18.382812 L 32.898438 19.402344 C 32.898438 19.535156 32.847656 19.65625 32.742188 19.753906 C 32.636719 19.855469 32.519531 19.902344 32.394531 19.902344 C 32.25 19.902344 32.175781 19.835938 32.175781 19.707031 C 32.175781 19.65625 32.195312 19.609375 32.234375 19.574219 C 32.269531 19.539062 32.316406 19.519531 32.367188 19.519531 C 32.40625 19.519531 32.441406 19.507812 32.46875 19.480469 C 32.496094 19.453125 32.511719 19.417969 32.511719 19.375 L 32.511719 18.433594 C 32.511719 18.394531 32.496094 18.371094 32.464844 18.371094 C 32.449219 18.371094 32.425781 18.382812 32.402344 18.402344 L 30.566406 19.800781 C 30.476562 19.867188 30.382812 19.902344 30.277344 19.902344 C 30.160156 19.902344 30.054688 19.859375 29.96875 19.777344 C 29.878906 19.691406 29.832031 19.589844 29.832031 19.472656 Z M 29.832031 19.472656 "/>
<path style=" stroke:none;fill-rule:nonzero;fill:rgb(100%,100%,100%);fill-opacity:1;" d="M 32.511719 16.078125 L 32.511719 15.394531 C 32.511719 15.339844 32.53125 15.296875 32.570312 15.257812 C 32.605469 15.21875 32.652344 15.199219 32.707031 15.199219 C 32.757812 15.199219 32.804688 15.21875 32.84375 15.257812 C 32.878906 15.296875 32.898438 15.339844 32.898438 15.394531 L 32.898438 16.101562 C 32.898438 16.191406 32.871094 16.285156 32.8125 16.378906 C 32.753906 16.476562 32.6875 16.542969 32.613281 16.582031 L 31.75 17.015625 C 31.625 17.074219 31.496094 17.105469 31.367188 17.105469 C 31.222656 17.105469 31.097656 17.078125 30.992188 17.023438 L 30.136719 16.582031 C 30.054688 16.539062 29.984375 16.472656 29.925781 16.386719 C 29.863281 16.296875 29.832031 16.210938 29.832031 16.128906 L 29.832031 15.378906 C 29.832031 15.328125 29.851562 15.285156 29.890625 15.246094 C 29.929688 15.210938 29.976562 15.191406 30.027344 15.191406 C 30.082031 15.191406 30.128906 15.210938 30.167969 15.246094 C 30.207031 15.285156 30.226562 15.328125 30.226562 15.378906 L 30.226562 16.101562 C 30.226562 16.160156 30.261719 16.210938 30.335938 16.246094 L 31.136719 16.667969 C 31.199219 16.699219 31.273438 16.714844 31.359375 16.714844 C 31.449219 16.714844 31.53125 16.699219 31.601562 16.660156 L 32.390625 16.261719 C 32.46875 16.222656 32.511719 16.160156 32.511719 16.078125 Z M 32.511719 16.078125 "/>
<path style=" stroke:none;fill-rule:nonzero;fill:rgb(100%,100%,100%);fill-opacity:1;" d="M 32.898438 14.328125 L 30.027344 14.328125 C 29.976562 14.328125 29.929688 14.308594 29.890625 14.273438 C 29.851562 14.234375 29.832031 14.191406 29.832031 14.140625 C 29.832031 14.089844 29.851562 14.042969 29.890625 14.007812 C 29.929688 13.96875 29.976562 13.949219 30.027344 13.949219 L 32.511719 13.949219 L 32.511719 12.613281 C 32.511719 12.5625 32.53125 12.515625 32.570312 12.476562 C 32.605469 12.4375 32.652344 12.417969 32.707031 12.417969 C 32.757812 12.417969 32.804688 12.4375 32.84375 12.476562 C 32.878906 12.515625 32.898438 12.5625 32.898438 12.613281 Z M 32.898438 14.328125 "/>
<path style=" stroke:none;fill-rule:nonzero;fill:rgb(100%,100%,100%);fill-opacity:1;" d="M 36.816406 19.472656 L 36.816406 18.488281 C 36.816406 18.367188 36.867188 18.253906 36.972656 18.148438 C 37.074219 18.039062 37.199219 17.984375 37.347656 17.984375 C 37.402344 17.984375 37.449219 18.003906 37.488281 18.042969 C 37.527344 18.082031 37.546875 18.125 37.546875 18.171875 C 37.546875 18.234375 37.53125 18.277344 37.503906 18.304688 C 37.472656 18.328125 37.414062 18.351562 37.335938 18.371094 C 37.253906 18.394531 37.210938 18.441406 37.210938 18.515625 L 37.210938 19.453125 C 37.210938 19.496094 37.226562 19.519531 37.253906 19.519531 C 37.273438 19.519531 37.296875 19.507812 37.320312 19.488281 L 39.160156 18.085938 C 39.246094 18.019531 39.34375 17.984375 39.445312 17.984375 C 39.558594 17.984375 39.660156 18.027344 39.75 18.109375 C 39.835938 18.191406 39.878906 18.28125 39.878906 18.382812 L 39.878906 19.402344 C 39.878906 19.535156 39.828125 19.65625 39.722656 19.753906 C 39.617188 19.855469 39.5 19.902344 39.375 19.902344 C 39.230469 19.902344 39.160156 19.835938 39.160156 19.707031 C 39.160156 19.65625 39.179688 19.609375 39.214844 19.574219 C 39.253906 19.539062 39.296875 19.519531 39.347656 19.519531 C 39.390625 19.519531 39.425781 19.507812 39.453125 19.480469 C 39.480469 19.453125 39.492188 19.417969 39.492188 19.375 L 39.492188 18.433594 C 39.492188 18.394531 39.476562 18.371094 39.445312 18.371094 C 39.429688 18.371094 39.410156 18.382812 39.382812 18.402344 L 37.546875 19.800781 C 37.457031 19.867188 37.363281 19.902344 37.261719 19.902344 C 37.140625 19.902344 37.035156 19.859375 36.949219 19.777344 C 36.859375 19.691406 36.816406 19.589844 36.816406 19.472656 Z M 36.816406 19.472656 "/>
<path style=" stroke:none;fill-rule:nonzero;fill:rgb(100%,100%,100%);fill-opacity:1;" d="M 36.816406 16.929688 L 36.816406 16.183594 C 36.816406 16.085938 36.847656 15.988281 36.910156 15.898438 C 36.976562 15.804688 37.050781 15.738281 37.140625 15.695312 L 37.914062 15.320312 C 38.054688 15.25 38.203125 15.214844 38.355469 15.214844 C 38.496094 15.214844 38.640625 15.25 38.789062 15.328125 L 39.554688 15.703125 C 39.652344 15.75 39.734375 15.820312 39.792969 15.910156 C 39.851562 16 39.878906 16.101562 39.878906 16.210938 L 39.878906 16.933594 C 39.878906 16.988281 39.859375 17.03125 39.824219 17.070312 C 39.785156 17.105469 39.738281 17.125 39.6875 17.125 C 39.632812 17.125 39.585938 17.105469 39.546875 17.070312 C 39.507812 17.03125 39.488281 16.988281 39.488281 16.933594 L 39.488281 16.734375 L 37.207031 16.734375 L 37.207031 16.929688 C 37.207031 16.980469 37.1875 17.027344 37.148438 17.066406 C 37.109375 17.101562 37.0625 17.117188 37.007812 17.117188 C 36.957031 17.117188 36.910156 17.101562 36.871094 17.066406 C 36.835938 17.027344 36.816406 16.980469 36.816406 16.929688 Z M 37.207031 16.359375 L 39.492188 16.359375 L 39.492188 16.226562 C 39.492188 16.140625 39.449219 16.078125 39.367188 16.035156 L 38.605469 15.660156 C 38.503906 15.617188 38.421875 15.59375 38.355469 15.59375 C 38.269531 15.59375 38.1875 15.609375 38.113281 15.648438 L 37.324219 16.035156 C 37.246094 16.078125 37.207031 16.140625 37.207031 16.234375 Z M 37.207031 16.359375 "/>
<path style=" stroke:none;fill-rule:nonzero;fill:rgb(100%,100%,100%);fill-opacity:1;" d="M 39.609375 14.316406 L 36.960938 13.550781 C 36.863281 13.523438 36.816406 13.460938 36.816406 13.363281 C 36.816406 13.269531 36.855469 13.210938 36.9375 13.1875 L 39.628906 12.433594 C 39.648438 12.425781 39.667969 12.425781 39.6875 12.425781 C 39.742188 12.425781 39.785156 12.441406 39.824219 12.476562 C 39.863281 12.515625 39.878906 12.554688 39.878906 12.601562 C 39.878906 12.703125 39.832031 12.765625 39.738281 12.792969 L 39.214844 12.945312 L 39.214844 13.808594 L 39.777344 13.972656 C 39.800781 13.976562 39.824219 13.996094 39.847656 14.03125 C 39.871094 14.0625 39.878906 14.097656 39.878906 14.136719 C 39.878906 14.191406 39.859375 14.238281 39.824219 14.273438 C 39.785156 14.3125 39.738281 14.328125 39.683594 14.328125 C 39.660156 14.328125 39.636719 14.324219 39.609375 14.316406 Z M 37.710938 13.367188 L 38.820312 13.691406 L 38.820312 13.054688 Z M 37.710938 13.367188 "/>
<path style=" stroke:none;fill-rule:nonzero;fill:rgb(100%,100%,100%);fill-opacity:1;" d="M 43.796875 18.796875 L 43.796875 18.171875 C 43.796875 18.117188 43.816406 18.074219 43.855469 18.039062 C 43.890625 18 43.9375 17.980469 43.992188 17.980469 C 44.046875 17.980469 44.09375 18 44.132812 18.042969 C 44.171875 18.082031 44.1875 18.125 44.1875 18.171875 L 44.1875 18.769531 C 44.1875 18.828125 44.21875 18.878906 44.273438 18.921875 L 44.972656 19.453125 C 45.027344 19.5 45.105469 19.519531 45.203125 19.519531 L 46.277344 19.519531 C 46.332031 19.519531 46.378906 19.503906 46.417969 19.46875 C 46.457031 19.429688 46.476562 19.382812 46.476562 19.332031 L 46.476562 18.5625 C 46.476562 18.511719 46.457031 18.464844 46.417969 18.429688 C 46.378906 18.390625 46.332031 18.371094 46.28125 18.371094 L 45.859375 18.371094 L 45.859375 18.765625 C 45.859375 18.820312 45.84375 18.863281 45.804688 18.898438 C 45.765625 18.9375 45.722656 18.953125 45.667969 18.953125 C 45.613281 18.953125 45.566406 18.9375 45.53125 18.898438 C 45.492188 18.863281 45.472656 18.820312 45.472656 18.765625 L 45.472656 17.996094 L 46.28125 17.996094 C 46.441406 17.996094 46.578125 18.050781 46.691406 18.160156 C 46.804688 18.273438 46.863281 18.40625 46.863281 18.5625 L 46.863281 19.332031 C 46.863281 19.488281 46.804688 19.625 46.691406 19.738281 C 46.578125 19.847656 46.441406 19.902344 46.28125 19.902344 L 45.207031 19.902344 C 45.015625 19.902344 44.855469 19.855469 44.722656 19.753906 L 43.996094 19.195312 C 43.941406 19.152344 43.894531 19.097656 43.855469 19.027344 C 43.816406 18.953125 43.796875 18.875 43.796875 18.796875 Z M 43.796875 18.796875 "/>
<path style=" stroke:none;fill-rule:nonzero;fill:rgb(100%,100%,100%);fill-opacity:1;" d="M 46.667969 17.109375 L 43.796875 17.109375 L 43.796875 15.769531 C 43.796875 15.613281 43.855469 15.480469 43.96875 15.371094 C 44.085938 15.257812 44.222656 15.199219 44.382812 15.199219 L 45.109375 15.199219 C 45.269531 15.199219 45.40625 15.257812 45.519531 15.367188 C 45.632812 15.476562 45.691406 15.613281 45.691406 15.769531 L 45.691406 16.726562 L 46.667969 16.726562 C 46.722656 16.726562 46.769531 16.746094 46.808594 16.785156 C 46.84375 16.820312 46.863281 16.863281 46.863281 16.917969 C 46.863281 16.96875 46.84375 17.015625 46.808594 17.054688 C 46.769531 17.089844 46.722656 17.109375 46.667969 17.109375 Z M 45.304688 16.726562 L 45.304688 15.769531 C 45.304688 15.71875 45.285156 15.671875 45.246094 15.636719 C 45.210938 15.597656 45.164062 15.578125 45.109375 15.578125 L 44.382812 15.578125 C 44.328125 15.578125 44.285156 15.597656 44.246094 15.636719 C 44.207031 15.671875 44.1875 15.71875 44.1875 15.769531 L 44.1875 16.726562 Z M 45.304688 16.726562 "/>
<path style=" stroke:none;fill-rule:nonzero;fill:rgb(100%,100%,100%);fill-opacity:1;" d="M 43.796875 14.140625 L 43.796875 12.609375 C 43.796875 12.558594 43.816406 12.515625 43.855469 12.476562 C 43.894531 12.4375 43.9375 12.417969 43.992188 12.417969 C 44.042969 12.417969 44.089844 12.4375 44.132812 12.476562 C 44.167969 12.515625 44.1875 12.558594 44.1875 12.609375 L 44.1875 13.179688 L 46.476562 13.179688 L 46.476562 12.609375 C 46.476562 12.554688 46.492188 12.511719 46.53125 12.476562 C 46.570312 12.4375 46.613281 12.417969 46.667969 12.417969 C 46.722656 12.417969 46.769531 12.4375 46.808594 12.476562 C 46.84375 12.515625 46.863281 12.558594 46.863281 12.609375 L 46.863281 14.140625 C 46.863281 14.191406 46.84375 14.238281 46.808594 14.273438 C 46.769531 14.3125 46.722656 14.328125 46.667969 14.328125 C 46.613281 14.328125 46.570312 14.3125 46.53125 14.273438 C 46.492188 14.238281 46.476562 14.191406 46.476562 14.140625 L 46.476562 13.558594 L 44.1875 13.558594 L 44.1875 14.140625 C 44.1875 14.191406 44.167969 14.238281 44.132812 14.273438 C 44.09375 14.3125 44.046875 14.328125 43.996094 14.328125 C 43.941406 14.328125 43.894531 14.3125 43.855469 14.273438 C 43.816406 14.238281 43.796875 14.191406 43.796875 14.140625 Z M 43.796875 14.140625 "/>
<path style=" stroke:none;fill-rule:nonzero;fill:rgb(100%,100%,100%);fill-opacity:1;" d="M 44.082031 10.140625 L 44.949219 9.722656 C 45.070312 9.664062 45.195312 9.636719 45.335938 9.636719 C 45.46875 9.636719 45.597656 9.664062 45.71875 9.722656 L 46.578125 10.140625 C 46.769531 10.226562 46.863281 10.378906 46.863281 10.589844 C 46.863281 10.691406 46.835938 10.78125 46.78125 10.863281 C 46.726562 10.941406 46.660156 11 46.578125 11.042969 L 45.71875 11.460938 C 45.605469 11.515625 45.476562 11.542969 45.335938 11.542969 C 45.191406 11.542969 45.0625 11.515625 44.949219 11.460938 L 44.082031 11.042969 C 43.890625 10.949219 43.796875 10.796875 43.796875 10.589844 C 43.796875 10.378906 43.890625 10.230469 44.082031 10.140625 Z M 44.273438 10.714844 L 45.089844 11.105469 C 45.171875 11.144531 45.253906 11.160156 45.332031 11.160156 C 45.414062 11.160156 45.496094 11.144531 45.574219 11.105469 L 46.398438 10.703125 C 46.449219 10.683594 46.476562 10.644531 46.476562 10.589844 C 46.476562 10.542969 46.449219 10.503906 46.398438 10.480469 L 45.574219 10.074219 C 45.492188 10.035156 45.410156 10.015625 45.332031 10.015625 C 45.246094 10.015625 45.167969 10.035156 45.089844 10.074219 L 44.273438 10.46875 C 44.214844 10.496094 44.183594 10.535156 44.183594 10.589844 C 44.183594 10.644531 44.214844 10.683594 44.273438 10.714844 Z M 44.273438 10.714844 "/>
<path style=" stroke:none;fill-rule:nonzero;fill:rgb(100%,100%,100%);fill-opacity:1;" d="M 46.46875 8.578125 L 46.46875 7.996094 L 44.183594 7.996094 L 44.183594 8.570312 C 44.183594 8.621094 44.164062 8.667969 44.128906 8.703125 C 44.089844 8.742188 44.042969 8.757812 43.992188 8.757812 C 43.9375 8.757812 43.890625 8.742188 43.855469 8.703125 C 43.816406 8.667969 43.796875 8.621094 43.796875 8.570312 L 43.796875 7.621094 L 46.46875 7.621094 L 46.46875 7.242188 L 45.664062 7.242188 C 45.609375 7.242188 45.566406 7.222656 45.527344 7.1875 C 45.488281 7.148438 45.46875 7.105469 45.46875 7.050781 C 45.46875 7 45.488281 6.957031 45.527344 6.917969 C 45.5625 6.882812 45.609375 6.863281 45.664062 6.863281 L 46.664062 6.863281 C 46.71875 6.863281 46.765625 6.882812 46.800781 6.917969 C 46.839844 6.957031 46.859375 7 46.859375 7.050781 L 46.859375 8.578125 C 46.859375 8.632812 46.839844 8.675781 46.800781 8.714844 C 46.761719 8.75 46.714844 8.769531 46.660156 8.769531 C 46.605469 8.769531 46.5625 8.75 46.527344 8.714844 C 46.488281 8.675781 46.46875 8.632812 46.46875 8.578125 Z M 46.46875 8.578125 "/>
<path style=" stroke:none;fill-rule:nonzero;fill:rgb(100%,100%,100%);fill-opacity:1;" d="M 52.695312 18.945312 L 53.75 19.546875 C 53.8125 19.582031 53.84375 19.636719 53.84375 19.707031 C 53.84375 19.761719 53.824219 19.808594 53.78125 19.847656 C 53.742188 19.886719 53.699219 19.902344 53.652344 19.902344 C 53.613281 19.902344 53.578125 19.894531 53.539062 19.871094 L 52.3125 19.164062 L 51.097656 19.855469 C 51.046875 19.882812 51.003906 19.898438 50.964844 19.898438 C 50.914062 19.898438 50.871094 19.878906 50.835938 19.839844 C 50.796875 19.804688 50.777344 19.761719 50.777344 19.710938 C 50.777344 19.636719 50.808594 19.582031 50.871094 19.546875 L 51.921875 18.9375 L 50.875 18.339844 C 50.8125 18.300781 50.78125 18.25 50.78125 18.179688 C 50.78125 18.125 50.796875 18.082031 50.835938 18.042969 C 50.871094 18.003906 50.917969 17.984375 50.96875 17.984375 C 51.003906 17.984375 51.039062 17.992188 51.074219 18.011719 L 52.308594 18.722656 L 53.550781 18.015625 C 53.582031 18 53.617188 17.988281 53.652344 17.988281 C 53.707031 17.988281 53.753906 18.007812 53.789062 18.046875 C 53.828125 18.082031 53.84375 18.125 53.84375 18.179688 C 53.84375 18.253906 53.8125 18.308594 53.75 18.34375 Z M 52.695312 18.945312 "/>
<path style=" stroke:none;fill-rule:nonzero;fill:rgb(100%,100%,100%);fill-opacity:1;" d="M 50.78125 16.71875 L 50.78125 15.734375 C 50.78125 15.613281 50.832031 15.5 50.9375 15.394531 C 51.039062 15.285156 51.164062 15.230469 51.3125 15.230469 C 51.367188 15.230469 51.414062 15.25 51.453125 15.289062 C 51.492188 15.328125 51.511719 15.371094 51.511719 15.417969 C 51.511719 15.480469 51.496094 15.527344 51.46875 15.550781 C 51.4375 15.574219 51.378906 15.597656 51.296875 15.621094 C 51.21875 15.640625 51.175781 15.6875 51.175781 15.761719 L 51.175781 16.699219 C 51.175781 16.742188 51.191406 16.765625 51.21875 16.765625 C 51.238281 16.765625 51.261719 16.753906 51.285156 16.734375 L 53.125 15.332031 C 53.210938 15.265625 53.308594 15.230469 53.410156 15.230469 C 53.523438 15.230469 53.625 15.273438 53.714844 15.355469 C 53.800781 15.4375 53.84375 15.527344 53.84375 15.628906 L 53.84375 16.648438 C 53.84375 16.785156 53.792969 16.902344 53.6875 17 C 53.582031 17.101562 53.464844 17.148438 53.339844 17.148438 C 53.195312 17.148438 53.125 17.085938 53.125 16.953125 C 53.125 16.902344 53.140625 16.859375 53.179688 16.820312 C 53.21875 16.785156 53.261719 16.765625 53.3125 16.765625 C 53.355469 16.765625 53.386719 16.753906 53.417969 16.726562 C 53.445312 16.699219 53.457031 16.664062 53.457031 16.621094 L 53.457031 15.679688 C 53.457031 15.640625 53.441406 15.621094 53.410156 15.621094 C 53.394531 15.621094 53.375 15.628906 53.347656 15.648438 L 51.511719 17.050781 C 51.421875 17.113281 51.328125 17.148438 51.226562 17.148438 C 51.105469 17.148438 51 17.105469 50.914062 17.023438 C 50.824219 16.9375 50.78125 16.835938 50.78125 16.71875 Z M 50.78125 16.71875 "/>
<path style=" stroke:none;fill-rule:nonzero;fill:rgb(100%,100%,100%);fill-opacity:1;" d="M 53.652344 14.371094 L 50.972656 14.371094 C 50.921875 14.371094 50.875 14.351562 50.835938 14.316406 C 50.800781 14.277344 50.78125 14.234375 50.78125 14.179688 C 50.78125 14.128906 50.800781 14.085938 50.835938 14.046875 C 50.875 14.011719 50.921875 13.992188 50.972656 13.992188 L 52.117188 13.992188 L 52.117188 12.839844 L 50.972656 12.839844 C 50.921875 12.839844 50.875 12.820312 50.835938 12.785156 C 50.800781 12.746094 50.78125 12.703125 50.78125 12.648438 C 50.78125 12.597656 50.800781 12.554688 50.835938 12.515625 C 50.875 12.480469 50.921875 12.460938 50.976562 12.460938 L 53.652344 12.460938 C 53.703125 12.460938 53.75 12.480469 53.789062 12.519531 C 53.824219 12.554688 53.84375 12.601562 53.84375 12.648438 C 53.84375 12.703125 53.828125 12.75 53.789062 12.785156 C 53.75 12.820312 53.707031 12.839844 53.652344 12.839844 L 52.503906 12.839844 L 52.503906 13.988281 L 53.652344 13.988281 C 53.703125 13.988281 53.75 14.007812 53.789062 14.046875 C 53.824219 14.082031 53.84375 14.128906 53.84375 14.179688 C 53.84375 14.230469 53.828125 14.277344 53.789062 14.3125 C 53.75 14.351562 53.707031 14.371094 53.652344 14.371094 Z M 53.652344 14.371094 "/>
<path style=" stroke:none;fill-rule:nonzero;fill:rgb(100%,100%,100%);fill-opacity:1;" d="M 53.265625 11.582031 L 50.976562 11.582031 C 50.925781 11.582031 50.878906 11.5625 50.839844 11.523438 C 50.800781 11.484375 50.78125 11.441406 50.78125 11.390625 C 50.78125 11.339844 50.800781 11.296875 50.835938 11.257812 C 50.875 11.21875 50.921875 11.203125 50.972656 11.203125 L 53.265625 11.203125 C 53.316406 11.203125 53.359375 11.183594 53.398438 11.144531 C 53.433594 11.109375 53.453125 11.0625 53.453125 11.011719 L 53.453125 10.238281 C 53.453125 10.1875 53.433594 10.140625 53.398438 10.105469 C 53.359375 10.066406 53.316406 10.050781 53.265625 10.050781 L 50.976562 10.050781 C 50.921875 10.050781 50.875 10.03125 50.835938 9.996094 C 50.800781 9.957031 50.78125 9.914062 50.78125 9.859375 C 50.78125 9.808594 50.800781 9.761719 50.835938 9.726562 C 50.875 9.691406 50.921875 9.671875 50.976562 9.671875 L 53.257812 9.671875 C 53.417969 9.671875 53.558594 9.726562 53.671875 9.839844 C 53.789062 9.949219 53.84375 10.082031 53.84375 10.238281 L 53.84375 11.011719 C 53.84375 11.167969 53.789062 11.300781 53.675781 11.414062 C 53.5625 11.523438 53.421875 11.582031 53.265625 11.582031 Z M 53.265625 11.582031 "/>
<path style=" stroke:none;fill-rule:nonzero;fill:rgb(100%,100%,100%);fill-opacity:1;" d="M 51.308594 8.796875 L 50.785156 8.796875 L 50.785156 6.886719 L 51.3125 6.886719 C 51.367188 6.886719 51.414062 6.90625 51.449219 6.941406 C 51.488281 6.980469 51.507812 7.023438 51.507812 7.074219 C 51.507812 7.128906 51.488281 7.171875 51.449219 7.210938 C 51.410156 7.25 51.363281 7.269531 51.3125 7.269531 L 51.171875 7.269531 L 51.171875 7.652344 L 53.652344 7.652344 C 53.707031 7.652344 53.75 7.671875 53.789062 7.707031 C 53.828125 7.746094 53.84375 7.789062 53.84375 7.839844 C 53.84375 7.894531 53.828125 7.941406 53.789062 7.976562 C 53.75 8.015625 53.707031 8.035156 53.652344 8.035156 L 51.171875 8.035156 L 51.171875 8.417969 L 51.308594 8.417969 C 51.363281 8.417969 51.40625 8.433594 51.445312 8.472656 C 51.484375 8.507812 51.5 8.554688 51.5 8.605469 C 51.5 8.660156 51.484375 8.703125 51.445312 8.742188 C 51.40625 8.777344 51.363281 8.796875 51.308594 8.796875 Z M 51.308594 8.796875 "/>
<path style=" stroke:none;fill-rule:nonzero;fill:rgb(100%,100%,100%);fill-opacity:1;" d="M 20.476562 0.730469 L 20.476562 1.429688 L 19.6875 3.390625 C 19.644531 3.484375 19.582031 3.53125 19.496094 3.53125 C 19.40625 3.53125 19.339844 3.484375 19.304688 3.390625 L 18.519531 1.429688 L 18.519531 0.730469 C 18.519531 0.679688 18.539062 0.632812 18.574219 0.59375 C 18.613281 0.558594 18.660156 0.539062 18.710938 0.539062 C 18.765625 0.539062 18.8125 0.558594 18.847656 0.59375 C 18.886719 0.632812 18.90625 0.679688 18.90625 0.730469 L 18.90625 1.347656 L 19.496094 2.816406 L 20.085938 1.355469 L 20.085938 0.730469 C 20.085938 0.679688 20.105469 0.632812 20.140625 0.59375 C 20.179688 0.558594 20.226562 0.539062 20.28125 0.539062 C 20.335938 0.539062 20.378906 0.558594 20.417969 0.59375 C 20.457031 0.632812 20.476562 0.679688 20.476562 0.730469 Z M 20.476562 0.730469 "/>
<path style=" stroke:none;fill-rule:nonzero;fill:rgb(100%,100%,100%);fill-opacity:1;" d="M 21.367188 3.53125 L 21.367188 0.726562 C 21.367188 0.675781 21.386719 0.632812 21.425781 0.59375 C 21.464844 0.558594 21.507812 0.539062 21.5625 0.539062 C 21.613281 0.539062 21.660156 0.558594 21.695312 0.59375 C 21.734375 0.632812 21.753906 0.675781 21.753906 0.726562 L 21.753906 3.152344 L 23.125 3.152344 C 23.179688 3.152344 23.226562 3.171875 23.261719 3.207031 C 23.304688 3.246094 23.324219 3.289062 23.324219 3.339844 C 23.324219 3.394531 23.304688 3.4375 23.261719 3.476562 C 23.226562 3.511719 23.179688 3.53125 23.125 3.53125 Z M 21.367188 3.53125 "/>
<path style=" stroke:none;fill-rule:nonzero;fill:rgb(100%,100%,100%);fill-opacity:1;" d="M 24.929688 3.148438 L 25.824219 3.148438 L 25.824219 2.21875 L 24.652344 2.21875 L 24.652344 0.539062 L 26.019531 0.539062 C 26.070312 0.539062 26.117188 0.558594 26.15625 0.59375 C 26.195312 0.632812 26.214844 0.675781 26.214844 0.726562 C 26.214844 0.78125 26.195312 0.824219 26.15625 0.863281 C 26.117188 0.898438 26.074219 0.917969 26.019531 0.917969 L 25.046875 0.917969 L 25.046875 1.84375 L 25.824219 1.84375 C 25.929688 1.84375 26.019531 1.878906 26.097656 1.953125 C 26.175781 2.03125 26.214844 2.117188 26.214844 2.21875 L 26.214844 3.148438 C 26.214844 3.25 26.175781 3.339844 26.097656 3.414062 C 26.023438 3.488281 25.933594 3.527344 25.824219 3.527344 L 24.929688 3.527344 C 24.847656 3.527344 24.761719 3.507812 24.671875 3.46875 L 24.378906 3.351562 C 24.300781 3.320312 24.261719 3.257812 24.261719 3.171875 C 24.261719 3.117188 24.28125 3.074219 24.316406 3.039062 C 24.351562 3 24.394531 2.980469 24.445312 2.980469 C 24.484375 2.980469 24.527344 2.992188 24.578125 3.015625 L 24.832031 3.121094 C 24.863281 3.140625 24.894531 3.148438 24.929688 3.148438 Z M 24.929688 3.148438 "/>
<path style=" stroke:none;fill-rule:nonzero;fill:rgb(100%,100%,100%);fill-opacity:1;" d="M 29.023438 0.917969 L 29.023438 1.625 C 29.023438 1.792969 28.972656 1.925781 28.867188 2.027344 C 28.976562 2.144531 29.03125 2.269531 29.03125 2.410156 L 29.03125 3.148438 C 29.03125 3.25 28.992188 3.339844 28.914062 3.414062 C 28.835938 3.488281 28.746094 3.527344 28.636719 3.527344 L 27.265625 3.527344 C 27.214844 3.527344 27.167969 3.507812 27.128906 3.472656 C 27.09375 3.433594 27.074219 3.390625 27.074219 3.335938 C 27.074219 3.285156 27.09375 3.242188 27.128906 3.203125 C 27.167969 3.167969 27.214844 3.148438 27.265625 3.148438 L 28.632812 3.148438 L 28.632812 2.410156 C 28.632812 2.355469 28.613281 2.3125 28.574219 2.273438 C 28.539062 2.234375 28.492188 2.214844 28.4375 2.214844 L 27.660156 2.214844 C 27.605469 2.214844 27.558594 2.199219 27.519531 2.160156 C 27.484375 2.125 27.464844 2.082031 27.464844 2.027344 C 27.464844 1.972656 27.484375 1.929688 27.519531 1.894531 C 27.558594 1.855469 27.605469 1.835938 27.660156 1.835938 L 28.445312 1.835938 C 28.496094 1.835938 28.542969 1.820312 28.578125 1.785156 C 28.617188 1.746094 28.636719 1.699219 28.636719 1.648438 L 28.636719 0.917969 L 27.253906 0.917969 C 27.199219 0.917969 27.152344 0.898438 27.113281 0.863281 C 27.078125 0.824219 27.058594 0.78125 27.058594 0.726562 C 27.058594 0.675781 27.078125 0.628906 27.113281 0.59375 C 27.152344 0.558594 27.199219 0.539062 27.253906 0.539062 L 28.636719 0.539062 C 28.746094 0.539062 28.835938 0.574219 28.910156 0.652344 C 28.988281 0.722656 29.023438 0.8125 29.023438 0.917969 Z M 29.023438 0.917969 "/>
<path style=" stroke:none;fill-rule:nonzero;fill:rgb(100%,100%,100%);fill-opacity:1;" d="M 29.925781 3.53125 L 29.925781 0.726562 C 29.925781 0.675781 29.945312 0.632812 29.984375 0.59375 C 30.023438 0.558594 30.066406 0.539062 30.121094 0.539062 C 30.171875 0.539062 30.21875 0.558594 30.257812 0.59375 C 30.292969 0.632812 30.3125 0.675781 30.3125 0.726562 L 30.3125 3.152344 L 31.683594 3.152344 C 31.738281 3.152344 31.785156 3.171875 31.824219 3.207031 C 31.863281 3.246094 31.882812 3.289062 31.882812 3.339844 C 31.882812 3.394531 31.863281 3.4375 31.824219 3.476562 C 31.785156 3.511719 31.738281 3.53125 31.683594 3.53125 Z M 29.925781 3.53125 "/>
<path style=" stroke:none;fill-rule:nonzero;fill:rgb(100%,100%,100%);fill-opacity:1;" d="M 32.769531 3.160156 L 32.769531 0.898438 C 32.769531 0.800781 32.808594 0.714844 32.882812 0.640625 C 32.953125 0.570312 33.042969 0.535156 33.144531 0.535156 L 34.351562 0.535156 C 34.453125 0.535156 34.539062 0.570312 34.609375 0.640625 C 34.683594 0.714844 34.722656 0.800781 34.722656 0.898438 L 34.722656 3.160156 C 34.722656 3.261719 34.683594 3.347656 34.609375 3.421875 C 34.539062 3.492188 34.453125 3.527344 34.347656 3.527344 L 33.144531 3.527344 C 33.039062 3.527344 32.953125 3.492188 32.878906 3.421875 C 32.808594 3.347656 32.769531 3.261719 32.769531 3.160156 Z M 34.339844 3.148438 L 34.339844 0.917969 L 33.15625 0.917969 L 33.15625 3.148438 Z M 34.339844 3.148438 "/>
<path style=" stroke:none;fill-rule:nonzero;fill:rgb(100%,100%,100%);fill-opacity:1;" d="M 37.578125 0.863281 L 36.003906 3.472656 C 35.980469 3.511719 35.941406 3.53125 35.886719 3.53125 C 35.835938 3.53125 35.789062 3.515625 35.742188 3.484375 C 35.699219 3.449219 35.679688 3.40625 35.679688 3.351562 C 35.679688 3.304688 35.695312 3.257812 35.726562 3.203125 L 37.296875 0.597656 C 37.324219 0.554688 37.363281 0.535156 37.421875 0.535156 C 37.46875 0.535156 37.515625 0.554688 37.558594 0.585938 C 37.601562 0.617188 37.625 0.660156 37.625 0.710938 C 37.625 0.761719 37.609375 0.8125 37.578125 0.863281 Z M 37.578125 0.863281 "/>
<path style=" stroke:none;fill-rule:nonzero;fill:rgb(100%,100%,100%);fill-opacity:1;" d="M 38.664062 3.148438 L 39.261719 3.148438 L 39.261719 0.917969 L 38.675781 0.917969 C 38.621094 0.917969 38.574219 0.898438 38.535156 0.863281 C 38.5 0.824219 38.480469 0.78125 38.480469 0.726562 C 38.480469 0.675781 38.5 0.628906 38.535156 0.59375 C 38.574219 0.558594 38.621094 0.539062 38.675781 0.539062 L 39.648438 0.539062 L 39.648438 3.148438 L 40.035156 3.148438 L 40.035156 2.359375 C 40.035156 2.308594 40.054688 2.265625 40.089844 2.226562 C 40.128906 2.191406 40.175781 2.171875 40.230469 2.171875 C 40.285156 2.171875 40.328125 2.191406 40.367188 2.226562 C 40.402344 2.261719 40.421875 2.308594 40.421875 2.359375 L 40.421875 3.335938 C 40.421875 3.390625 40.402344 3.433594 40.367188 3.472656 C 40.328125 3.507812 40.285156 3.527344 40.230469 3.527344 L 38.664062 3.527344 C 38.613281 3.527344 38.566406 3.507812 38.527344 3.46875 C 38.492188 3.429688 38.472656 3.386719 38.472656 3.332031 C 38.472656 3.28125 38.492188 3.238281 38.527344 3.203125 C 38.566406 3.164062 38.613281 3.148438 38.664062 3.148438 Z M 38.664062 3.148438 "/>
<path style=" stroke:none;fill-rule:nonzero;fill:rgb(100%,100%,100%);fill-opacity:1;" d="M 42.347656 2.410156 L 41.730469 3.4375 C 41.695312 3.5 41.640625 3.527344 41.566406 3.527344 C 41.511719 3.527344 41.464844 3.507812 41.425781 3.46875 C 41.386719 3.429688 41.367188 3.386719 41.367188 3.339844 C 41.367188 3.304688 41.378906 3.269531 41.402344 3.230469 L 42.125 2.035156 L 41.414062 0.847656 C 41.386719 0.800781 41.375 0.757812 41.375 0.71875 C 41.375 0.671875 41.394531 0.628906 41.429688 0.59375 C 41.46875 0.554688 41.515625 0.535156 41.566406 0.535156 C 41.640625 0.535156 41.695312 0.566406 41.730469 0.625 L 42.355469 1.652344 L 42.96875 0.628906 C 43.007812 0.570312 43.0625 0.539062 43.132812 0.539062 C 43.1875 0.539062 43.234375 0.554688 43.273438 0.59375 C 43.3125 0.628906 43.335938 0.671875 43.335938 0.722656 C 43.335938 0.757812 43.324219 0.792969 43.304688 0.824219 L 42.578125 2.03125 L 43.300781 3.246094 C 43.316406 3.273438 43.328125 3.308594 43.328125 3.339844 C 43.328125 3.394531 43.308594 3.441406 43.269531 3.476562 C 43.234375 3.511719 43.1875 3.53125 43.132812 3.53125 C 43.058594 3.53125 43.003906 3.5 42.964844 3.4375 Z M 42.347656 2.410156 "/>
<path style=" stroke:none;fill-rule:nonzero;fill:rgb(100%,100%,100%);fill-opacity:1;" d="M 46.152344 0.730469 L 46.152344 1.429688 L 45.363281 3.390625 C 45.324219 3.484375 45.261719 3.53125 45.175781 3.53125 C 45.085938 3.53125 45.019531 3.484375 44.980469 3.390625 L 44.195312 1.429688 L 44.195312 0.730469 C 44.195312 0.679688 44.214844 0.632812 44.253906 0.59375 C 44.289062 0.558594 44.335938 0.539062 44.390625 0.539062 C 44.445312 0.539062 44.488281 0.558594 44.527344 0.59375 C 44.566406 0.632812 44.585938 0.679688 44.585938 0.730469 L 44.585938 1.347656 L 45.175781 2.816406 L 45.765625 1.355469 L 45.765625 0.730469 C 45.765625 0.679688 45.785156 0.632812 45.820312 0.59375 C 45.859375 0.558594 45.90625 0.539062 45.960938 0.539062 C 46.011719 0.539062 46.058594 0.558594 46.09375 0.59375 C 46.132812 0.632812 46.152344 0.679688 46.152344 0.730469 Z M 46.152344 0.730469 "/>
<path style=" stroke:none;fill-rule:nonzero;fill:rgb(100%,100%,100%);fill-opacity:1;" d="M 48.804688 3.527344 L 47.039062 3.527344 L 47.039062 2.21875 C 47.039062 2.117188 47.078125 2.023438 47.152344 1.949219 C 47.230469 1.875 47.320312 1.835938 47.429688 1.835938 L 48.605469 1.835938 L 48.605469 0.917969 L 47.21875 0.917969 C 47.164062 0.917969 47.121094 0.898438 47.082031 0.863281 C 47.046875 0.824219 47.027344 0.78125 47.027344 0.726562 C 47.027344 0.675781 47.046875 0.628906 47.082031 0.59375 C 47.121094 0.558594 47.164062 0.539062 47.21875 0.539062 L 48.605469 0.539062 C 48.710938 0.539062 48.804688 0.574219 48.882812 0.652344 C 48.957031 0.722656 48.996094 0.8125 48.996094 0.917969 L 48.996094 1.835938 C 48.996094 1.945312 48.957031 2.035156 48.882812 2.109375 C 48.804688 2.183594 48.710938 2.21875 48.605469 2.21875 L 47.429688 2.21875 L 47.429688 3.148438 L 48.804688 3.148438 C 48.855469 3.148438 48.902344 3.167969 48.9375 3.203125 C 48.976562 3.242188 48.996094 3.285156 48.996094 3.335938 C 48.996094 3.390625 48.976562 3.433594 48.9375 3.472656 C 48.902344 3.507812 48.855469 3.527344 48.804688 3.527344 Z M 48.804688 3.527344 "/>
<path style="fill-rule:nonzero;fill:rgb(0%,0%,0%);stroke-opacity:1;stroke-miterlimit:4;" d="M 27.824219 4.830001 L 39.449219 4.830001 L 39.449219 11.168626 L 27.824219 11.168626 Z M 27.824219 4.830001 " transform="matrix(1,0,0,0.976158,0,0)"/>
<path style="fill-rule:nonzero;fill:rgb(20%,20%,20%);stroke-opacity:1;stroke-miterlimit:4;" d="M 30.300781 7.779222 C 30.300781 8.147375 30 8.451501 29.628906 8.451501 C 29.257812 8.451501 28.957031 8.147375 28.957031 7.779222 C 28.957031 7.407068 29.257812 7.106944 29.628906 7.106944 C 30 7.106944 30.300781 7.407068 30.300781 7.779222 Z M 30.300781 7.779222 " transform="matrix(1,0,0,0.976158,0,0)"/>
</g>
</svg>
